# xmcd CD database file
#
# Track frame offsets:
#	150
#	18927
#	35892
#	53217
#	68212
#	84032
#	106517
#	125760
#	143700
#	159762
#	172717
#	190965
#	210942
#	233547
#	256155
#	281057
#	295552
#
# Disc length: 4199 seconds
#
# Revision: 33
# Processed by: cddbd v1.5.2PL0 Copyright (c) Steve Scherf et al.
# Submitted via: CDex 2.18
#
DISCID=d5106511
DTITLE=Various Artist - Pure Moods
DYEAR=1994
DGENRE=New Age
TTITLE0=Return to Innocence ft. Enigma
TTITLE1=Orinoco Flow (Sail Away) ft. Enya
TTITLE2=Sweet Lullaby ft. Deep Forest
TTITLE3=Oxygene IV ft. Jean Michel Jarre
TTITLE4=X-Files Theme (DADO Paranormal Activity Mix) ft. DJ Dado
TTITLE5=Tubular Bells, Part 1 (Edit) ft. Mike Oldfield
TTITLE6=Sadeness ft. Enigma
TTITLE7=Adiemus ft. Adiemus
TTITLE8=Crockett's Theme ft. Jan Hammer
TTITLE9=Theme from The Mission ft. Ennio Morricone
TTITLE10=Main Title Theme (The Last Emperor) ft. David Byrne
TTITLE11=Yeha-Noha (Wishes of Happiness and Prosperity) ft. Sacred Spirits
TTITLE12=The Theme from Twin Peaks: Fire Walk With Me ft. Angelo Badalamenti
TTITLE13=Makambo ft. Geoffrey Oryema
TTITLE14=My Wife With Champagne Shoulders ft. Mark Isham
TTITLE15=The Promise ft. Michael Nyman
TTITLE16=Lily Was Here ft. David A. Stewart and Candy Dulfer
EXTD=\n YEAR: 1994
EXTT0=
EXTT1=
EXTT2=
EXTT3=
EXTT4=
EXTT5=
EXTT6=
EXTT7=
EXTT8=
EXTT9=
EXTT10=
EXTT11=
EXTT12=
EXTT13=
EXTT14=
EXTT15=
EXTT16=
PLAYORDER=
